<?xml version="1.0" encoding="UTF-8"?>
<svg width="96px" height="96px" enable-background="new 0 0 96 96" version="1.1" viewBox="0 0 96 96" xml:space="preserve" xmlns="http://www.w3.org/2000/svg"><style/><defs><linearGradient id="a" x1="42.857" x2="53.501" y1="-10.857" y2="76.166" gradientUnits="userSpaceOnUse"><stop stop-color="#FFA90A" offset="0"/><stop stop-color="#FFA00D" offset=".34083"/><stop stop-color="#FE8616" offset=".73165"/><stop stop-color="#FE6E1F" offset=".9944"/></linearGradient></defs><path d="m88 48.522c-0.11326 10.299-0.85563 21.623-7.7482 29.889-6.9742 8.0115-18.18 9.6496-28.21 10.042-10.557 0.17719-21.921 0.01925-31.215-5.6597-8.5982-5.2936-11.667-15.73-12.443-25.227-0.70115-10.793-0.85088-22.115 3.2792-32.306 3.1826-8.2109 11.164-13.477 19.563-15.157 10.326-2.1022 21.081-2.0706 31.471-0.42933 8.5082 1.3747 17.081 5.8452 20.875 13.951 3.8005 7.6735 4.3603 16.479 4.4287 24.896z" enable-background="new    " opacity=".28526"/><path d="m88 47.522c-0.08282 10.463-0.91305 21.981-8.0782 30.26-7.0319 7.6579-17.997 9.3228-27.88 9.6709-11.299 0.20524-23.664-0.014-33.148-7.0112-8.1275-6.5314-10.406-17.534-10.715-27.445-0.50451-11.207-0.21415-23.225 5.7821-33.095 5.7157-8.458 16.303-11.488 25.999-12.049 10.163-0.8035 20.68-0.45417 30.383 2.9163 7.5663 2.9119 13.515 9.5184 15.402 17.431 1.8696 6.2539 2.1935 12.838 2.2536 19.322z" fill="url(#a)"/><path d="m48 7.522c-10.299 0.11307-21.623 0.8571-29.888 7.7503-8.0108 6.9742-9.6504 18.179-10.043 28.209-0.17723 10.557-0.019052 21.922 5.6603 31.215 5.2939 8.5979 15.73 11.666 25.227 12.443 10.794 0.70093 22.116 0.85095 32.308-3.2788 8.2109-3.182 13.476-11.164 15.155-19.563 2.1012-10.326 2.0699-21.08 0.429-31.47-1.3744-8.508-5.8442-17.081-13.95-20.875-7.6739-3.8013-16.48-4.3613-24.898-4.4297zm0 79c-10.066-0.1211-21.137-0.75114-29.247-7.4634-7.8182-6.813-9.3059-17.786-9.6876-27.563-0.14945-10.592-0.081583-22.073 5.9005-31.275 5.5459-8.2788 15.98-10.788 25.334-11.432 10.478-0.50885 21.504-0.66492 31.307 3.6064 7.9694 3.345 12.655 11.449 14.095 19.67 1.786 10.182 1.786 20.731 0 30.913-1.4405 8.2207-6.1256 16.325-14.095 19.67-7.3644 3.3284-15.642 3.8118-23.608 3.8737z" enable-background="new    " fill="#ef6d1d" opacity=".11218"/><path d="m44.398 48.812c-2.3521 8.9754-4.7042 17.951-7.0564 26.926l28.905-37.408h-14.201c3.1099-6.023 6.2198-12.046 9.3297-18.069h-18.305c-4.4386 9.5169-8.8773 19.034-13.316 28.551h14.644z" fill="#fff" stroke-width=".81"/></svg>
